<?xml version="1.0" encoding="UTF-8"?>
<!DOCTYPE svg PUBLIC "-//W3C//DTD SVG 1.1//EN" "http://www.w3.org/Graphics/SVG/1.1/DTD/svg11.dtd">
<!-- Creator: CorelDRAW 2019 (64-Bit) -->
<svg xmlns="http://www.w3.org/2000/svg" xml:space="preserve" width="21.6747mm" height="21.6747mm" version="1.1" style="shape-rendering:geometricPrecision; text-rendering:geometricPrecision; image-rendering:optimizeQuality; fill-rule:evenodd; clip-rule:evenodd"
viewBox="0 0 317.75 317.75"
 xmlns:xlink="http://www.w3.org/1999/xlink"
 xmlns:xodm="http://www.corel.com/coreldraw/odm/2003">
 <defs>
  <style type="text/css">
   <![CDATA[
    .str0 {stroke:#FEFEFE;stroke-width:7.76;stroke-miterlimit:22.9256}
    .fil2 {fill:none}
    .fil1 {fill:#FEFEFE}
    .fil0 {fill:#E31E24}
   ]]>
  </style>
 </defs>
 <g id="Ebene_x0020_1">
  <metadata id="CorelCorpID_0Corel-Layer"/>
  <rect class="fil0" x="-0" y="-0" width="317.75" height="317.75" rx="22.41" ry="23.3"/>
  <path class="fil1" d="M152 176.73l0 74.87c0,3.48 -2.73,6.32 -6.08,6.32l-0 0c-3.34,0 -6.08,-2.84 -6.08,-6.32l0 -79.14 0 -0.18 -0 -0.16 0 -57.42 -2.64 0 0 55.71c0,3.48 -2.73,6.32 -6.08,6.32l-0 0c-3.34,0 -6.08,-2.84 -6.08,-6.32l0 -62.03 0 0c0,-3.48 2.73,-6.32 6.08,-6.32l0 0 13.16 0 29.51 0 12 0c0.14,0 0.28,0 0.42,0.01 0.14,-0.01 0.28,-0.01 0.41,-0.01l0 0c3.34,0 6.08,2.84 6.08,6.32l0 62.03c0,3.48 -2.73,6.32 -6.08,6.32l-0 0c-3.34,0 -6.08,-2.84 -6.08,-6.32l0 -55.71 -2.32 0 0 57.42 -0 0.16 0 0.18 0 79.14c0,3.48 -2.74,6.32 -6.08,6.32l-0 0c-3.34,0 -6.08,-2.84 -6.08,-6.32l0 -74.87 -14.07 0zm7.04 -116.91c9.14,0 16.55,7.71 16.55,17.21 0,9.51 -7.41,17.21 -16.55,17.21 -9.14,0 -16.55,-7.71 -16.55,-17.21 0,-9.51 7.41,-17.21 16.55,-17.21z"/>
  <g id="_1523013999184">
   <path class="fil2 str0" d="M235.32 164.78c24.7,-11.24 35.96,-41.18 25.15,-66.87 -0.83,-1.98 -1.79,-3.91 -2.86,-5.76"/>
   <path class="fil2 str0" d="M229.86 153.01c18.28,-8.32 26.62,-30.48 18.61,-49.49 -0.62,-1.47 -1.32,-2.89 -2.12,-4.26"/>
  </g>
  <g id="_1523014002928">
   <path class="fil2 str0" d="M80.26 164.78c-24.7,-11.24 -35.96,-41.18 -25.15,-66.87 0.83,-1.98 1.79,-3.91 2.86,-5.76"/>
   <path class="fil2 str0" d="M85.72 153.01c-18.28,-8.32 -26.62,-30.48 -18.62,-49.49 0.62,-1.47 1.33,-2.89 2.12,-4.26"/>
  </g>
 </g>
</svg>
