<?xml version="1.0" encoding="UTF-8"?>
<!DOCTYPE svg PUBLIC "-//W3C//DTD SVG 1.1//EN" "http://www.w3.org/Graphics/SVG/1.1/DTD/svg11.dtd">
<!-- Creator: CorelDRAW 2019 (64-Bit) -->
<svg xmlns="http://www.w3.org/2000/svg" xml:space="preserve" width="21.6747mm" height="21.6747mm" version="1.1" style="shape-rendering:geometricPrecision; text-rendering:geometricPrecision; image-rendering:optimizeQuality; fill-rule:evenodd; clip-rule:evenodd"
viewBox="0 0 767.61 767.61"
 xmlns:xlink="http://www.w3.org/1999/xlink"
 xmlns:xodm="http://www.corel.com/coreldraw/odm/2003">
 <defs>
  <style type="text/css">
   <![CDATA[
    .fil1 {fill:#FEFEFE}
    .fil0 {fill:#009846}
   ]]>
  </style>
 </defs>
 <g id="Ebene_x0020_1">
  <metadata id="CorelCorpID_0Corel-Layer"/>
  <rect class="fil0" x="-0" y="-0" width="767.61" height="767.61" rx="54.13" ry="56.29"/>
  <path class="fil1" d="M362.73 438.58l0 229.62c0,10.66 -8.39,19.38 -18.64,19.38l-0 0c-10.25,0 -18.64,-8.72 -18.64,-19.38l0 -242.73 0.01 -0.55 -0.01 -0.5 0 -176.09 -8.11 0 0 170.86c0,10.66 -8.39,19.39 -18.64,19.39l-0 0c-10.25,0 -18.64,-8.72 -18.64,-19.39l0 -190.24 0 -0c0,-10.66 8.39,-19.38 18.64,-19.38l0 0 40.36 0 90.5 0 36.81 0c0.43,0 0.86,0.01 1.28,0.04 0.42,-0.03 0.85,-0.04 1.27,-0.04l0 0c10.25,0 18.64,8.72 18.64,19.38l0 190.25c0,10.66 -8.39,19.39 -18.64,19.39l-0 0c-10.25,0 -18.64,-8.72 -18.64,-19.39l0 -170.86 -7.12 0 0 176.09 -0.01 0.5 0.01 0.55 0 242.73c0,10.66 -8.39,19.38 -18.64,19.38l-0 0c-10.25,0 -18.64,-8.72 -18.64,-19.38l0 -229.62 -43.15 0zm21.57 -358.55c28.03,0 50.76,23.63 50.76,52.79 0,29.15 -22.73,52.79 -50.76,52.79 -28.03,0 -50.76,-23.63 -50.76,-52.79 0,-29.15 22.73,-52.79 50.76,-52.79z"/>
 </g>
</svg>
