<?xml version="1.0" encoding="UTF-8"?>
<!DOCTYPE svg PUBLIC "-//W3C//DTD SVG 1.1//EN" "http://www.w3.org/Graphics/SVG/1.1/DTD/svg11.dtd">
<!-- Creator: CorelDRAW 2019 (64-Bit) -->
<svg xmlns="http://www.w3.org/2000/svg" xml:space="preserve" width="21.6746mm" height="21.6748mm" version="1.1" style="shape-rendering:geometricPrecision; text-rendering:geometricPrecision; image-rendering:optimizeQuality; fill-rule:evenodd; clip-rule:evenodd"
viewBox="0 0 2403.38 2403.4"
 xmlns:xlink="http://www.w3.org/1999/xlink"
 xmlns:xodm="http://www.corel.com/coreldraw/odm/2003">
 <defs>
  <style type="text/css">
   <![CDATA[
    .str0 {stroke:#FEFEFE;stroke-width:22.18;stroke-miterlimit:22.9256}
    .fil6 {fill:none}
    .fil3 {fill:#E80000}
    .fil4 {fill:#FEFEFE;fill-rule:nonzero}
    .fil5 {fill:#EBECEC;fill-rule:nonzero}
    .fil2 {fill:#E80000;fill-rule:nonzero}
    .fil1 {fill:url(#id2)}
    .fil0 {fill:url(#id3)}
   ]]>
  </style>
   <clipPath id="id0">
    <path d="M0.11 125.58l2135.96 0 0.01 2135.97 -2135.96 0 -0.01 -2135.97z"/>
   </clipPath>
   <clipPath id="id1">
    <rect x="1637.63" y="1592.34" width="765.75" height="811.06"/>
   </clipPath>
  <linearGradient id="id2" gradientUnits="userSpaceOnUse" x1="1775.94" y1="2302.16" x2="2498.33" y2="1379.97">
   <stop offset="0" style="stop-opacity:1; stop-color:#C03322"/>
   <stop offset="0.509804" style="stop-opacity:1; stop-color:#DF1A11"/>
   <stop offset="1" style="stop-opacity:1; stop-color:red"/>
  </linearGradient>
  <linearGradient id="id3" gradientUnits="userSpaceOnUse" x1="158.94" y1="2041.3" x2="2388" y2="-804.3">
   <stop offset="0" style="stop-opacity:1; stop-color:gainsboro"/>
   <stop offset="1" style="stop-opacity:1; stop-color:#FEFEFE"/>
  </linearGradient>
 </defs>
 <g id="Ebene_x0020_1">
  <metadata id="CorelCorpID_0Corel-Layer"/>
  <g style="clip-path:url(#id0)">
   <image x="0.11" y="125.58" width="2135.97" height="2135.97" xlink:href="EMWarden Logo Icon_Images\EMWarden Logo Icon_ImgID1.png"/>
  </g>
  <rect class="fil0" x="41.18" y="166.65" width="2053.82" height="2053.82" rx="242.07" ry="242.07"/>
  <g style="clip-path:url(#id1)">
   <image x="1637.63" y="1592.34" width="765.75" height="811.06" xlink:href="EMWarden Logo Icon_Images\EMWarden Logo Icon_ImgID2.png"/>
  </g>
  <rect class="fil1" x="1737.78" y="1694.63" width="665.6" height="665.6" rx="78.45" ry="78.45"/>
  <g id="_2310436458352">
   <path class="fil2" d="M1083.46 2034.35l-4.28 1.16 -9.97 3.33 -1.12 -0.3 -0.81 0.21 -10.84 -3.38 -3.71 -1.02c-271.62,-73.94 -460.92,-262.92 -583.55,-498.46 -149.24,-286.66 -198.84,-643.37 -177.34,-941.2l2.97 -41.32 773.28 -205.11 773.3 205.11 2.99 41.32c21.48,297.82 -28.11,654.54 -177.36,941.21 -122.63,235.53 -311.93,424.51 -583.55,498.45zm-14.57 -116.58c227.89,-67.36 388.93,-231.45 495.11,-435.4 132.05,-253.65 180.11,-567.86 167.13,-838.34l-663.03 -175.86 -663.02 175.86c-13,270.48 35.06,584.69 167.11,838.33 106.14,203.85 267.07,367.89 494.8,435.31l0.78 -0.26 1.13 0.35z"/>
   <path class="fil3" d="M1590.44 1229.19l0 4.06 0 248.98c0,28.33 -23.16,51.49 -51.52,51.49l0 0 -1.9 -0.03 -1.91 0.03 -668.49 0 -48.84 0 -218.91 0 0 0 -1.33 -0.01 -1.31 -0.04 -1.3 -0.1 -1.31 -0.1 -1.29 -0.17 -1.29 -0.18 -1.28 -0.2 -1.26 -0.24 -1.24 -0.28 -1.23 -0.31 -0.02 0 -1.21 -0.33 -0.02 0 -1.2 -0.37 -1.19 -0.38 -0.02 0 -1.16 -0.42 -0.02 0 -1.16 -0.44 -1.18 -0.49 -1.14 -0.5 -2.25 -1.09 -1.09 -0.59 -0.01 0 -2.16 -1.24 -1.04 -0.67 -0.02 0 -1.02 -0.69 -1.01 -0.7 -0.02 0 -1.97 -1.5 -0.01 0 -0.94 -0.78 -0.02 0 -2.76 -2.46 -0.02 0 -0.85 -0.85 -0.02 0c-1.73,-1.75 -3.36,-3.64 -4.85,-5.61l-0.02 0 -0.71 -1.01 -0.02 0 -1.36 -2.05 -0.01 0 -1.3 -2.13 -0.6 -1.09 -0.02 0 -1.13 -2.22 -0.01 0c-0.72,-1.49 -1.35,-3.05 -1.93,-4.61l-0.02 0 -0.4 -1.2 -0.02 0 -0.73 -2.41 -0.01 0 -0.32 -1.23 -0.02 0 -0.81 -3.74 -0.02 0 -0.18 -1.26 -0.01 0 -0.17 -1.3 -0.02 0 -0.14 -1.28 -0.02 0 -0.08 -1.31 -0.02 0 -0.08 -1.32 -0.01 0 -0.02 -1.3 -0.02 0 0 -1.33 -0.02 0 0 -247.46 0 -2.41 0 -86.06c8.48,4.91 16.22,9.29 22.59,12.75 8.77,4.76 19.77,10.49 33.72,17.44 13.35,6.65 26.21,12.82 38.08,18.14 14.27,6.42 28.91,12.65 43.54,18.47 13.83,5.51 28.61,11.04 44.17,16.48 15.12,5.27 30.75,10.3 47.17,15.12 15.06,4.45 31.69,8.84 50.23,13.22 18.77,4.44 37.43,8.38 55.33,11.67 18.58,3.43 37.31,6.41 55.61,8.82 17.85,2.35 36.02,4.21 55.21,5.57 19.58,1.37 38.69,2.15 57.91,2.31 20.47,0.16 42.7,-0.33 66.51,-1.65 20.76,-1.14 42.83,-3.03 66.05,-5.79 24.28,-2.89 48.65,-6.62 72.49,-11.12 24.29,-4.58 48.33,-9.92 71.58,-15.97 21.76,-5.66 43.84,-12.24 65.36,-19.25 23.43,-7.63 45.54,-15.63 65.36,-23.4 18.6,-7.3 35.14,-14.4 50.61,-21.58 16.23,-7.53 30.57,-14.74 44.24,-22.04 12.01,-6.42 24.53,-13.46 37.33,-20.85l0 84.55z"/>
   <path class="fil3" d="M547.36 894.87l0 -4.3 0 -108.59 0.02 -0.99c-0.17,-1.95 -0.2,-3.91 -0.1,-5.87l0.02 -0.02c0.68,-14.44 8.18,-28.29 21.21,-36.41l0.4 -0.27 0.32 -0.18 0.69 -0.42 475.71 -274.66 0.39 -0.21 0.3 -0.18 0.04 0 0.28 -0.18 0.68 -0.37 0.04 0 0.31 -0.18 0.03 0 0.3 -0.19 0.04 0 0.3 -0.16 0.04 0 0.67 -0.34 0.03 0 0.3 -0.17 0.04 0 1 -0.45 0.04 0 0.31 -0.14 0.03 0 1.36 -0.57 0.04 0 0.67 -0.26 0.04 0 1.39 -0.49 0.03 0 0.32 -0.12 0.02 0 0.69 -0.22 0.03 0 0.33 -0.09 0.03 0 0.32 -0.11 0.04 0 0.32 -0.1 0.01 0 0.71 -0.18 0.02 0 0.69 -0.18 0.03 0 0.32 -0.09 0.04 0 0.32 -0.08 0.03 0 0.33 -0.08 0.03 0 0.32 -0.07 0.04 0 0.32 -0.08 0.03 0 0.32 -0.07 0.04 0 1.06 -0.18 0.02 0 0.34 -0.06 0.02 0 0.33 -0.07 0.02 0 0.34 -0.03 0.02 0 0.7 -0.1 0.04 0 0.32 -0.04 0.03 0 0.33 -0.02 0.03 0 0.34 -0.04 0.02 0 0.34 -0.03 0.01 0 0.34 -0.02 0.02 0 0.34 -0.01 0.03 0 0.33 -0.02 0.03 0 0.32 -0.02 0.04 0 0.32 -0.02 0.03 0 0.32 -0.02 0.04 0 0.34 0 0.02 0 0.34 -0.02 0.03 0 0.32 0 0.04 0 0.32 0 0.04 0 0.31 0 0.04 0 0.81 0 0.03 0 0.32 0 0.04 0 0.32 0 0.04 0 0.32 0 0.03 0 0.34 0.02 0.02 0 0.34 0 0.03 0 0.33 0.02 0.03 0 0.32 0.02 0.04 0 0.32 0.02 0.03 0 0.32 0.02 0.04 0 0.34 0.01 0.02 0 0.33 0.02 0.02 0 0.34 0.03 0.02 0 0.34 0.04 0.03 0 0.32 0.02 0.04 0 0.32 0.04 0.03 0 0.71 0.1 0.02 0 0.33 0.03 0.02 0 0.34 0.07 0.02 0 0.34 0.06 0.02 0 1.06 0.18 0.04 0 0.31 0.07 0.04 0 0.32 0.08 0.04 0 0.32 0.07 0.03 0 0.32 0.08 0.04 0 0.32 0.08 0.04 0 0.32 0.09 0.03 0 0.69 0.18 0.02 0 0.7 0.18 0.02 0 0.32 0.1 0.04 0 0.32 0.11 0.03 0 0.32 0.09 0.04 0 0.69 0.22 0.02 0 0.31 0.12 0.04 0 1.39 0.49 0.04 0 0.67 0.26 0.03 0 1.37 0.57 0.03 0 0.3 0.14 0.04 0 1.01 0.45 0.03 0 0.31 0.17 0.03 0 0.67 0.34 0.04 0 0.3 0.16 0.04 0 0.3 0.19 0.03 0 0.31 0.18 0.03 0 0.69 0.37 0.28 0.18 0.04 0 0.3 0.18 0.38 0.21 475.72 274.66 0.69 0.42 0.32 0.18 0.4 0.27c13.03,8.14 20.54,21.98 21.21,36.41l0.02 0.02c0.1,1.95 0.07,3.9 -0.1,5.87l0.02 0.99 0 131.64 -0.33 -0.19 0 83.5 -11.06 -6.49 0 -0.16c-8.68,-5.08 -18.35,-10.57 -29.02,-16.37 -8.73,-4.73 -19.8,-10.49 -33.72,-17.43 -13.36,-6.65 -26.2,-12.81 -38.07,-18.14 -14.26,-6.41 -28.9,-12.64 -43.52,-18.46 -13.83,-5.51 -28.61,-11.04 -44.15,-16.47 -15.12,-5.27 -30.75,-10.31 -47.17,-15.12 -15.05,-4.45 -31.67,-8.83 -50.21,-13.21 -18.75,-4.44 -37.42,-8.39 -55.31,-11.68 -18.58,-3.42 -37.3,-6.4 -55.59,-8.8 -17.74,-2.33 -35.94,-4.19 -55.34,-5.57 -19.53,-1.39 -38.58,-2.15 -57.74,-2.31 -20.48,-0.16 -42.7,0.33 -66.5,1.65 -20.76,1.14 -42.81,3.03 -66.03,5.79 -24.28,2.89 -48.63,6.62 -72.47,11.12 -24.28,4.57 -48.31,9.92 -71.54,15.96 -21.76,5.66 -43.83,12.24 -65.33,19.24 -23.43,7.64 -45.53,15.65 -65.33,23.41 -18.58,7.29 -35.13,14.38 -50.6,21.56 -16.22,7.53 -30.56,14.74 -44.22,22.04 -6.48,3.46 -13.1,7.1 -19.83,10.88l0 -83.51z"/>
   <path class="fil3" d="M1068.77 853.52c117.6,0 212.94,95.35 212.94,212.96 0,117.6 -95.34,212.94 -212.94,212.94 -117.62,0 -212.96,-95.34 -212.96,-212.94 0,-117.62 95.35,-212.96 212.96,-212.96zm43.6 28.55c41.22,0 74.63,33.41 74.63,74.63 0,41.22 -33.41,74.61 -74.63,74.61 -41.2,0 -74.61,-33.4 -74.61,-74.61 0,-41.22 33.41,-74.63 74.61,-74.63z"/>
  </g>
  <path class="fil4 str0" d="M1815.56 1864.96l172.02 0 0 34.81 -133.79 0 0 102.44 112.85 0 0 35.31 -112.85 0 0 118.34 138.34 0 0 35.31 -176.56 0 0 -326.19zm237.55 0l45.06 0 57.79 175.03 21.38 66.63 1.82 0 20.95 -66.63 57.34 -175.03 44.6 0 0 326.19 -35.96 0 0 -179.5c0,-14.58 0.61,-30.66 1.82,-48.23 1.22,-17.56 2.28,-33.64 3.19,-48.22l-1.83 0 -23.66 72.59 -57.34 170.56 -21.84 0 -57.34 -170.56 -23.65 -72.59 -1.83 0c0.91,14.58 1.9,30.66 2.96,48.22 1.06,17.58 1.59,33.65 1.59,48.23l0 179.5 -35.04 0 0 -326.19z"/>
  <path class="fil5" d="M996.04 791.15c36.07,-1.5 73.08,-1.14 108.98,0.64 38.79,1.93 76.41,5.54 110.23,10.28 22,3.34 252.03,43.52 229.02,75.71 -6.46,9.05 -36.69,-8.46 -84.43,-21.7 -48.7,-13.49 -97.66,-24.71 -147.6,-32.1 -33.27,-4.65 -70.22,-8.21 -108.31,-10.1 -35.35,-1.75 -71.7,-2.11 -106.99,-0.64 -32.32,1.34 -64.19,4.29 -93.96,8.02 -67.71,8.92 -113.59,20.4 -178.98,36.72 -43.03,10.76 -47.16,-7.85 1.12,-22.55 48.7,-14.84 120.21,-28.93 171.72,-35.72 32.76,-4.31 66.18,-7.17 99.21,-8.56z"/>
  <path class="fil5" d="M989.87 1336.13c36.05,2 73.06,2.15 108.98,0.85 38.81,-1.4 76.48,-4.49 110.35,-8.76 22.05,-3.04 252.61,-40.07 230.04,-72.56 -6.33,-9.14 -36.79,7.95 -84.7,20.54 -48.89,12.83 -97.99,23.35 -148.03,30.07 -33.32,4.19 -70.33,7.24 -108.45,8.62 -35.36,1.28 -71.71,1.13 -106.98,-0.82 -32.31,-1.79 -64.14,-5.18 -93.85,-9.3 -67.57,-9.85 -113.3,-21.96 -178.45,-39.18 -42.89,-11.34 -47.27,7.21 0.8,22.57 48.49,15.5 119.81,30.57 171.22,38.07 32.69,4.77 66.07,8.08 99.08,9.91z"/>
  <rect class="fil6" x="-0.01" y="0" width="2403.39" height="2403.4"/>
 </g>
</svg>
