<?xml version="1.0" encoding="UTF-8"?>
<!DOCTYPE svg PUBLIC "-//W3C//DTD SVG 1.1//EN" "http://www.w3.org/Graphics/SVG/1.1/DTD/svg11.dtd">
<!-- Creator: CorelDRAW 2019 (64-Bit) -->
<svg xmlns="http://www.w3.org/2000/svg" xml:space="preserve" width="14.0876mm" height="15.2462mm" version="1.1" style="shape-rendering:geometricPrecision; text-rendering:geometricPrecision; image-rendering:optimizeQuality; fill-rule:evenodd; clip-rule:evenodd"
viewBox="0 0 46.2 50"
 xmlns:xlink="http://www.w3.org/1999/xlink"
 xmlns:xodm="http://www.corel.com/coreldraw/odm/2003">
 <defs>
  <style type="text/css">
   <![CDATA[
    .fil1 {fill:#E80000}
    .fil0 {fill:#E80000;fill-rule:nonzero}
    .fil2 {fill:#EBECEC;fill-rule:nonzero}
   ]]>
  </style>
 </defs>
 <g id="Ebene_x0020_1">
  <metadata id="CorelCorpID_0Corel-Layer"/>
  <g id="_1559470894624">
   <g id="_2310436458352">
    <path class="fil0" d="M23.56 49.87l-0.13 0.03 -0.29 0.1 -0.03 -0.01 -0.02 0.01 -0.32 -0.1 -0.11 -0.03c-8.03,-2.19 -13.63,-7.78 -17.26,-14.74 -4.41,-8.48 -5.88,-19.03 -5.25,-27.84l0.09 -1.22 22.87 -6.07 22.87 6.07 0.09 1.22c0.64,8.81 -0.83,19.36 -5.25,27.84 -3.63,6.97 -9.23,12.56 -17.26,14.74zm-0.43 -3.45c6.74,-1.99 11.5,-6.85 14.64,-12.88 3.91,-7.5 5.33,-16.8 4.94,-24.8l-19.61 -5.2 -19.61 5.2c-0.38,8 1.04,17.29 4.94,24.8 3.14,6.03 7.9,10.88 14.63,12.88l0.02 -0.01 0.03 0.01z"/>
    <path class="fil1" d="M38.55 26.05l0 0.12 0 7.36c0,0.84 -0.69,1.52 -1.52,1.52l0 0 -0.06 -0 -0.06 0 -19.77 0 -1.44 0 -6.47 0 0 0 -0.04 -0 -0.04 -0 -0.04 -0 -0.04 -0 -0.04 -0 -0.04 -0.01 -0.04 -0.01 -0.04 -0.01 -0.04 -0.01 -0.04 -0.01 -0 0 -0.04 -0.01 -0 0 -0.04 -0.01 -0.04 -0.01 -0 0 -0.03 -0.01 -0 0 -0.03 -0.01 -0.03 -0.01 -0.03 -0.01 -0.07 -0.03 -0.03 -0.02 -0 0 -0.06 -0.04 -0.03 -0.02 -0 0 -0.03 -0.02 -0.03 -0.02 -0 0 -0.06 -0.04 -0 0 -0.03 -0.02 -0 0 -0.08 -0.07 -0 0 -0.03 -0.03 -0 0c-0.05,-0.05 -0.1,-0.11 -0.14,-0.17l-0 0 -0.02 -0.03 -0 0 -0.04 -0.06 -0 0 -0.04 -0.06 -0.02 -0.03 -0 0 -0.03 -0.07 -0 0c-0.02,-0.04 -0.04,-0.09 -0.06,-0.14l-0 0 -0.01 -0.04 -0 0 -0.02 -0.07 -0 0 -0.01 -0.04 -0 0 -0.02 -0.11 -0 0 -0.01 -0.04 -0 0 -0 -0.04 -0 0 -0 -0.04 -0 0 -0 -0.04 -0 0 -0 -0.04 -0 0 -0 -0.04 -0 0 0 -0.04 -0 0 0 -7.32 0 -0.07 0 -2.54c0.25,0.15 0.48,0.27 0.67,0.38 0.26,0.14 0.58,0.31 1,0.52 0.39,0.2 0.78,0.38 1.13,0.54 0.42,0.19 0.86,0.37 1.29,0.55 0.41,0.16 0.85,0.33 1.31,0.49 0.45,0.16 0.91,0.3 1.4,0.45 0.45,0.13 0.94,0.26 1.49,0.39 0.56,0.13 1.11,0.25 1.64,0.35 0.55,0.1 1.1,0.19 1.64,0.26 0.53,0.07 1.07,0.12 1.63,0.16 0.58,0.04 1.14,0.06 1.71,0.07 0.61,0 1.26,-0.01 1.97,-0.05 0.61,-0.03 1.27,-0.09 1.95,-0.17 0.72,-0.09 1.44,-0.2 2.14,-0.33 0.72,-0.14 1.43,-0.29 2.12,-0.47 0.64,-0.17 1.3,-0.36 1.93,-0.57 0.69,-0.23 1.35,-0.46 1.93,-0.69 0.55,-0.22 1.04,-0.43 1.5,-0.64 0.48,-0.22 0.9,-0.44 1.31,-0.65 0.36,-0.19 0.73,-0.4 1.1,-0.62l0 2.5z"/>
    <path class="fil1" d="M7.7 16.17l0 -0.13 0 -3.21 0 -0.03c-0,-0.06 -0.01,-0.12 -0,-0.17l0 -0c0.02,-0.43 0.24,-0.84 0.63,-1.08l0.01 -0.01 0.01 -0.01 0.02 -0.01 14.07 -8.12 0.01 -0.01 0.01 -0.01 0 0 0.01 -0.01 0.02 -0.01 0 0 0.01 -0.01 0 0 0.01 -0.01 0 0 0.01 -0 0 0 0.02 -0.01 0 0 0.01 -0 0 0 0.03 -0.01 0 0 0.01 -0 0 0 0.04 -0.02 0 0 0.02 -0.01 0 0 0.04 -0.01 0 0 0.01 -0 0 0 0.02 -0.01 0 0 0.01 -0 0 0 0.01 -0 0 0 0.01 -0 0 0 0.02 -0.01 0 0 0.02 -0.01 0 0 0.01 -0 0 0 0.01 -0 0 0 0.01 -0 0 0 0.01 -0 0 0 0.01 -0 0 0 0.01 -0 0 0 0.03 -0.01 0 0 0.01 -0 0 0 0.01 -0 0 0 0.01 -0 0 0 0.02 -0 0 0 0.01 -0 0 0 0.01 -0 0 0 0.01 -0 0 0 0.01 -0 0 0 0.01 -0 0 0 0.01 -0 0 0 0.01 -0 0 0 0.01 -0 0 0 0.01 -0 0 0 0.01 -0 0 0 0.01 0 0 0 0.01 -0 0 0 0.01 0 0 0 0.01 0 0 0 0.01 0 0 0 0.02 0 0 0 0.01 0 0 0 0.01 0 0 0 0.01 0 0 0 0.01 0 0 0 0.01 0 0 0 0.01 0 0 0 0.01 0 0 0 0.01 0 0 0 0.01 0 0 0 0.01 0 0 0 0.01 0 0 0 0.01 0 0 0 0.01 0 0 0 0.01 0 0 0 0.01 0 0 0 0.02 0 0 0 0.01 0 0 0 0.01 0 0 0 0.01 0 0 0 0.03 0.01 0 0 0.01 0 0 0 0.01 0 0 0 0.01 0 0 0 0.01 0 0 0 0.01 0 0 0 0.01 0 0 0 0.02 0.01 0 0 0.02 0.01 0 0 0.01 0 0 0 0.01 0 0 0 0.01 0 0 0 0.02 0.01 0 0 0.01 0 0 0 0.04 0.01 0 0 0.02 0.01 0 0 0.04 0.02 0 0 0.01 0 0 0 0.03 0.01 0 0 0.01 0 0 0 0.02 0.01 0 0 0.01 0 0 0 0.01 0.01 0 0 0.01 0.01 0 0 0.02 0.01 0.01 0.01 0 0 0.01 0.01 0.01 0.01 14.07 8.12 0.02 0.01 0.01 0.01 0.01 0.01c0.39,0.24 0.61,0.65 0.63,1.08l0 0c0,0.06 0,0.12 -0,0.17l0 0.03 0 3.89 -0.01 -0.01 0 2.47 -0.33 -0.19 0 -0c-0.26,-0.15 -0.54,-0.31 -0.86,-0.48 -0.26,-0.14 -0.59,-0.31 -1,-0.52 -0.4,-0.2 -0.77,-0.38 -1.13,-0.54 -0.42,-0.19 -0.85,-0.37 -1.29,-0.55 -0.41,-0.16 -0.85,-0.33 -1.31,-0.49 -0.45,-0.16 -0.91,-0.31 -1.4,-0.45 -0.45,-0.13 -0.94,-0.26 -1.49,-0.39 -0.55,-0.13 -1.11,-0.25 -1.64,-0.35 -0.55,-0.1 -1.1,-0.19 -1.64,-0.26 -0.52,-0.07 -1.06,-0.12 -1.64,-0.16 -0.58,-0.04 -1.14,-0.06 -1.71,-0.07 -0.61,-0 -1.26,0.01 -1.97,0.05 -0.61,0.03 -1.27,0.09 -1.95,0.17 -0.72,0.09 -1.44,0.2 -2.14,0.33 -0.72,0.14 -1.43,0.29 -2.12,0.47 -0.64,0.17 -1.3,0.36 -1.93,0.57 -0.69,0.23 -1.35,0.46 -1.93,0.69 -0.55,0.22 -1.04,0.43 -1.5,0.64 -0.48,0.22 -0.9,0.44 -1.31,0.65 -0.19,0.1 -0.39,0.21 -0.59,0.32l0 -2.47z"/>
    <path class="fil1" d="M23.12 14.94c3.48,0 6.3,2.82 6.3,6.3 0,3.48 -2.82,6.3 -6.3,6.3 -3.48,0 -6.3,-2.82 -6.3,-6.3 0,-3.48 2.82,-6.3 6.3,-6.3zm1.29 0.84c1.22,0 2.21,0.99 2.21,2.21 0,1.22 -0.99,2.21 -2.21,2.21 -1.22,0 -2.21,-0.99 -2.21,-2.21 0,-1.22 0.99,-2.21 2.21,-2.21z"/>
   </g>
   <path class="fil2" d="M20.97 13.1c1.07,-0.04 2.16,-0.03 3.22,0.02 1.15,0.06 2.26,0.16 3.26,0.3 0.65,0.1 7.45,1.29 6.77,2.24 -0.19,0.27 -1.09,-0.25 -2.5,-0.64 -1.44,-0.4 -2.89,-0.73 -4.37,-0.95 -0.98,-0.14 -2.08,-0.24 -3.2,-0.3 -1.05,-0.05 -2.12,-0.06 -3.16,-0.02 -0.96,0.04 -1.9,0.13 -2.78,0.24 -2,0.26 -3.36,0.6 -5.29,1.09 -1.27,0.32 -1.39,-0.23 0.03,-0.67 1.44,-0.44 3.56,-0.86 5.08,-1.06 0.97,-0.13 1.96,-0.21 2.93,-0.25z"/>
   <path class="fil2" d="M20.79 29.22c1.07,0.06 2.16,0.06 3.22,0.03 1.15,-0.04 2.26,-0.13 3.26,-0.26 0.65,-0.09 7.47,-1.19 6.8,-2.15 -0.19,-0.27 -1.09,0.24 -2.51,0.61 -1.45,0.38 -2.9,0.69 -4.38,0.89 -0.99,0.12 -2.08,0.21 -3.21,0.25 -1.05,0.04 -2.12,0.03 -3.16,-0.02 -0.96,-0.05 -1.9,-0.15 -2.78,-0.28 -2,-0.29 -3.35,-0.65 -5.28,-1.16 -1.27,-0.34 -1.4,0.21 0.02,0.67 1.43,0.46 3.54,0.9 5.06,1.13 0.97,0.14 1.95,0.24 2.93,0.29z"/>
  </g>
 </g>
</svg>
